#!OML:ASF F:\VICON\USERDATA\INSTALL\rory3\rory3.ASF
:FULLY-SPECIFIED
:DEGREES
31
root 1.09178 17.8161 -16.9874 5.41007 0.989983 -0.199184
lowerback 5.45481 -0.746283 -1.23377
upperback 0.155264 -1.00637 2.18887
thorax -2.83839 -0.471303 3.03002
lowerneck -19.1098 -4.27772 -8.73835
upperneck 14.5127 -4.49962 5.72897
head 7.95522 -2.06583 2.77392
rclavicle -1.02374e-014 1.55052e-014
rhumerus -31.3924 -9.13144 -79.6152
rradius 33.0953
rwrist 5.62247
rhand -9.50997 10.2641
rfingers 7.12502
rthumb 16.4555 -19.058
lclavicle -1.02374e-014 1.55052e-014
lhumerus -28.4397 6.90903 86.5382
lradius 28.0049
lwrist -6.68797
lhand -18.656 23.4997
lfingers 7.12502
lthumb 7.63718 53.3418
rfemur -9.22862 4.60285 21.1726
rtibia 20.0699
rfoot -9.88135 -11.5831
rtoes 0.217917
lfemur -10.4583 -3.89579 -19.978
ltibia 20.8905
lfoot -12.2329 3.84572
ltoes 0.713285
32
root 1.09306 17.8144 -16.9836 5.43272 1.00072 -0.286883
lowerback 5.49521 -0.731516 -1.15209
upperback 0.100971 -0.979345 2.24234
thorax -2.91921 -0.457072 3.03888
lowerneck -19.1628 -4.29388 -8.85008
upperneck 14.6443 -4.49718 5.76329
head 8.01175 -2.06762 2.80413
rclavicle 4.77083e-015 6.36111e-015
rhumerus -31.55 -9.05749 -79.5583
rradius 33.271
rwrist 5.90739
rhand -12.2785 13.9135
rfingers 7.12502
rthumb 13.7886 -15.6095
lclavicle 4.77083e-015 6.36111e-015
lhumerus -28.5595 6.93187 86.5711
lradius 28.0109
lwrist -6.60745
lhand -18.5951 23.6216
lfingers 7.12502
lthumb 7.69594 53.4616
rfemur -9.23626 4.5267 21.2569
rtibia 20.0641
rfoot -9.92636 -11.5222
rtoes 0.159543
lfemur -10.4683 -3.91034 -19.8827
ltibia 20.9083
lfoot -12.2535 3.84722
ltoes 0.606116
33
root 1.09478 17.8185 -16.9789 5.51727 0.95298 -0.263029
lowerback 5.45279 -0.702112 -1.18109
upperback 0.0486259 -0.941114 2.25027
thorax -2.95121 -0.43667 3.06044
lowerneck -19.2096 -4.27288 -8.84231
upperneck 14.7022 -4.45764 5.70807
head 8.03451 -2.0536 2.78921
rclavicle -2.50469e-014 8.34896e-015
rhumerus -31.6359 -9.15978 -79.4459
rradius 33.423
rwrist 6.76274
rhand -12.7547 14.8212
rfingers 7.12502
rthumb 13.3296 -14.7324
lclavicle -2.50469e-014 8.34896e-015
lhumerus -28.6367 6.9727 86.5664
lradius 27.8317
lwrist -6.1478
lhand -19.1196 22.422
lfingers 7.12502
lthumb 7.18969 52.2799
rfemur -9.33728 4.55953 21.2089
rtibia 20.0932
rfoot -9.98442 -11.5156
rtoes 0.163944
lfemur -10.5642 -3.87585 -19.931
ltibia 20.929
lfoot -12.2386 3.87053
ltoes 0.341437
34
root 1.09414 17.8222 -16.9778 5.52831 0.960087 -0.253219
lowerback 5.48531 -0.699567 -1.17918
upperback 0.0479144 -0.938174 2.23157
thorax -2.9707 -0.435096 3.04038
lowerneck -19.2938 -4.2134 -8.72955
upperneck 14.7936 -4.38276 5.60236
head 8.06852 -2.02152 2.74469
rclavicle -3.08116e-015 -4.77083e-015
rhumerus -31.6106 -9.3651 -79.3677
rradius 33.5964
rwrist 7.95982
rhand -11.9001 13.9299
rfingers 7.12502
rthumb 14.1532 -15.568
lclavicle -3.08116e-015 -4.77083e-015
lhumerus -28.6468 6.98243 86.4963
lradius 27.7777
lwrist -5.98802
lhand -19.1938 22.3309
lfingers 7.12502
lthumb 7.1181 52.1912
rfemur -9.32804 4.67242 21.1996
rtibia 20.1116
rfoot -10.0376 -11.5585
rtoes 0.767104
lfemur -10.613 -3.80978 -19.955
ltibia 20.967
lfoot -12.2216 3.87859
ltoes -0.508618
35
root 1.09139 17.8203 -16.9786 5.50805 1.06256 -0.203
lowerback 5.5982 -0.740485 -1.24495
upperback 0.0343085 -0.99745 2.21439
thorax -3.0437 -0.462709 3.0668
lowerneck -19.3766 -4.16863 -8.67623
upperneck 14.9425 -4.3256 5.55859
head 8.12601 -1.99551 2.72885
rclavicle 1.27222e-014 -9.93923e-015
rhumerus -31.6389 -9.30251 -79.446
rradius 33.6765
rwrist 8.01354
rhand -11.0489 12.7251
rfingers 7.12502
rthumb 14.9734 -16.7136
lclavicle 1.27222e-014 -9.93923e-015
lhumerus -28.709 7.03237 86.4132
lradius 27.8834
lwrist -6.02382
lhand -19.1386 22.595
lfingers 7.12502
lthumb 7.17132 52.4535
rfemur -9.28221 4.63927 21.1607
rtibia 20.1432
rfoot -10.0163 -11.5405
rtoes 1.70039
lfemur -10.5837 -3.86076 -19.9807
ltibia 20.9778
lfoot -12.2623 3.81285
ltoes 0.167148
36
root 1.08882 17.8171 -16.9811 5.60175 1.14427 -0.185661
lowerback 5.55168 -0.770045 -1.30863
upperback 0.0387194 -1.03993 2.24744
thorax -3.0087 -0.48323 3.13937
lowerneck -19.4019 -4.1686 -8.73275
upperneck 14.8645 -4.30398 5.55575
head 8.10379 -1.98792 2.7392
rclavicle -2.40529e-014 -4.37326e-015
rhumerus -31.5107 -9.06611 -79.5826
rradius 33.389
rwrist 6.91113
rhand -11.2573 12.6008
rfingers 7.12502
rthumb 14.7726 -16.8528
lclavicle -2.40529e-014 -4.37326e-015
lhumerus -28.6284 7.08511 86.4256
lradius 27.9183
lwrist -6.21508
lhand -18.906 23.0503
lfingers 7.12502
lthumb 7.39584 52.901
rfemur -9.43357 4.54867 21.1529
rtibia 20.1821
rfoot -9.92115 -11.5439
rtoes 1.40077
lfemur -10.6979 -3.91698 -19.961
ltibia 20.9887
lfoot -12.2498 3.69923
ltoes 0.521448
